<svg xmlns="http://www.w3.org/2000/svg" xmlns:xlink="http://www.w3.org/1999/xlink" version="1.1" preserveAspectRatio="none" x="0px" y="0px" viewBox="0 0 140 140"><path fill="#000000" stroke="none" d=" M 77.5 20.7 Q 75.328515625 18.6541015625 73 17 62.403125 9.3896484375 48.7 9.8 46.196484375 9.875390625 43.8 10.2 30.3806640625 12.1248046875 20.7 22.4 11.9728515625 31.662890625 10.2 43.6 9.64453125 47.24609375 9.75 51.15 10.159375 63.5447265625 16.95 73 19.3076171875 76.2865234375 22.4 79.2 34.5 90.6 51.1 90.1 67.8 89.6 79.2 77.5 90.6 65.4 90.05 48.75 89.6 32.1 77.5 20.7 M 75.55 26.5 Q 77.0978515625 28.1640625 78.35 29.95 84.2537109375 38.144140625 84.5 48.9 85 63.25 75.2 73.7 65.4 84.15 50.95 84.55 37.9 85 28.1 76.9 L 42.6 61.5 Q 46.05 63.75 50.45 63.6 56.1 63.45 59.95 59.35 63.85 55.2 63.7 49.5 63.5 45.2 61.05 41.85 L 75.55 26.5 M 36.65 49.5 L 36.65 49.55 36.6 49.55 36.65 49.5 M 66.2 23.5 L 67.05 24 66 25.7 65.15 25.2 Q 59.96796875 21.92265625 53.7 21.25 L 53.65 21.25 Q 51.8857421875 21.004296875 50 21 37.960546875 20.994921875 29.45 29.45 20.994921875 37.960546875 21 50 21.003125 51.7857421875 21.2 53.45 L 21.2 53.5 Q 21.8728515625 59.8681640625 25.2 65.15 L 25.7 66 24 67.05 23.5 66.2 Q 19.9271484375 60.531640625 19.2 53.7 18.9966796875 51.9009765625 19 50 19.0048828125 37.139453125 28.05 28.05 37.139453125 19.0048828125 50 19 52.0142578125 18.995703125 53.9 19.25 60.6423828125 19.9837890625 66.2 23.5 M 58.75 31.1 L 58.2 30.75 Q 54.6 28.45 50.3 28.05 49.05 27.85 47.75 27.85 39.5 27.85 33.65 33.65 27.85 39.5 27.85 47.75 27.85 49 28 50.15 28.45 54.5 30.75 58.2 L 31.1 58.75 29.95 59.5 29.55 58.9 Q 27.15 55 26.6 50.3 26.5 49.05 26.5 47.75 26.5 38.95 32.7 32.7 38.95 26.5 47.75 26.5 49.15 26.5 50.45 26.65 55.05 27.15 58.9 29.55 L 59.5 29.95 58.75 31.1 M 41.8 42.3 Q 45 38.9 49.65 38.75 50.4396484375 38.7330078125 51.2 38.8 54.86875 39.1763671875 57.65 41.75 61.05 45 61.2 49.6 61.3 54.25 58.15 57.65 54.95 61 50.35 61.15 45.7 61.3 42.3 58.1 39.286328125 55.2662109375 38.75 51.2 38.7251953125 50.766796875 38.7 50.3 38.65 45.65 41.8 42.3 M 44.45 44.8 Q 43.506640625 45.8107421875 43 47 42.3724609375 48.4650390625 42.4 50.2 42.55 53.35 44.8 55.45 47.1 57.6 50.2 57.55 53.3 57.45 55.45 55.15 57.6 52.9 57.5 49.8 L 57.5 49.7 Q 57.4 46.6 55.15 44.45 52.85 42.3 49.75 42.4 48.2796875 42.4466796875 47 42.95 45.596484375 43.5734375 44.45 44.8 Z"/></svg>
